<?xml version="1.0" encoding="UTF-8"?>
<!DOCTYPE svg PUBLIC "-//W3C//DTD SVG 1.1//EN" "http://www.w3.org/Graphics/SVG/1.1/DTD/svg11.dtd">
<svg xmlns="http://www.w3.org/2000/svg" version="1.1" width="400px" height="398px" style="shape-rendering:geometricPrecision; text-rendering:geometricPrecision; image-rendering:optimizeQuality; fill-rule:evenodd; clip-rule:evenodd" xmlns:xlink="http://www.w3.org/1999/xlink">
<g><path style="opacity:0.723" fill="#000000" d="M 204.5,50.5 C 205.5,50.5 206.5,50.5 207.5,50.5C 207.414,52.677 206.747,54.677 205.5,56.5C 206.576,57.6559 207.576,57.4892 208.5,56C 223.356,55.8069 238.022,54.4735 252.5,52C 253.535,53.5069 253.368,55.0069 252,56.5C 249.047,58.7259 245.88,60.5593 242.5,62C 245.5,62.3333 248.5,62.6667 251.5,63C 252.308,63.3076 252.975,63.8076 253.5,64.5C 251.674,67.5052 249.007,69.3386 245.5,70C 260.326,79.4835 268.659,92.9835 270.5,110.5C 269.178,110.67 268.011,110.337 267,109.5C 264.059,104.228 260.726,99.228 257,94.5C 258.985,100.833 261.318,107.166 264,113.5C 267.118,123.303 269.284,133.303 270.5,143.5C 270.224,145.33 269.557,146.997 268.5,148.5C 262.449,136.737 255.615,125.404 248,114.5C 246.166,131.002 246.333,147.502 248.5,164C 248.098,170.405 244.765,174.405 238.5,176C 228.814,179.559 218.814,181.059 208.5,180.5C 208.177,184.226 208.511,187.893 209.5,191.5C 211.912,190.182 214.246,190.349 216.5,192C 218.652,194.469 220.152,197.302 221,200.5C 223.499,212.302 223.999,224.136 222.5,236C 221.216,236.684 220.049,236.517 219,235.5C 218.983,223.333 217.65,211.333 215,199.5C 214.653,197.82 213.653,196.82 212,196.5C 209.411,197.697 206.744,198.697 204,199.5C 201,198.5 198,197.5 195,196.5C 194.228,196.645 193.561,196.978 193,197.5C 190.907,202.628 189.574,207.962 189,213.5C 188.789,219.218 188.289,224.885 187.5,230.5C 189.155,235.224 187.655,236.891 183,235.5C 182.347,223.697 183.347,212.03 186,200.5C 187.139,194.524 190.639,191.191 196.5,190.5C 196.5,187.5 196.5,184.5 196.5,181.5C 186.477,182.96 176.477,182.793 166.5,181C 155.813,178.974 148.979,172.808 146,162.5C 144.96,154.869 144.294,147.202 144,139.5C 142.333,146.167 140.667,146.167 139,139.5C 137.115,127.914 136.115,116.248 136,104.5C 134.337,106.158 133.504,108.158 133.5,110.5C 130.266,110.763 128.932,109.263 129.5,106C 129.864,93.6136 134.531,83.2802 143.5,75C 139.699,72.3859 137.366,68.8859 136.5,64.5C 152.966,65.0744 169.299,64.0744 185.5,61.5C 185.5,59.5 185.5,57.5 185.5,55.5C 189.536,56.0201 192.703,58.0201 195,61.5C 196.808,56.4801 199.975,52.8134 204.5,50.5 Z M 263.5,96.5 C 258.132,89.8009 251.799,84.1342 244.5,79.5C 243.692,79.8076 243.025,80.3076 242.5,81C 255.777,97.4799 263.61,116.313 266,137.5C 254.886,116.056 241.053,96.5555 224.5,79C 218.184,77.1223 212.684,78.6223 208,83.5C 206.441,85.2166 205.608,87.2166 205.5,89.5C 208.9,87.2908 212.233,84.7908 215.5,82C 217.101,81.7266 218.601,81.2266 220,80.5C 225.286,83.4526 229.62,87.4526 233,92.5C 237.678,98.5298 241.845,104.863 245.5,111.5C 244.026,118.75 243.36,126.084 243.5,133.5C 243.893,144.548 244.393,155.548 245,166.5C 241.774,171.205 237.274,174.038 231.5,175C 223.266,176.803 214.933,177.803 206.5,178C 205.529,183.072 205.195,188.238 205.5,193.5C 203.738,193.643 202.071,193.309 200.5,192.5C 199.506,187.544 199.173,182.544 199.5,177.5C 188.881,179.913 178.214,180.08 167.5,178C 154.713,174.962 148.213,166.795 148,153.5C 147.333,142.5 147.333,131.5 148,120.5C 148.684,115.447 150.35,110.78 153,106.5C 154.333,109.833 155.667,113.167 157,116.5C 158.11,118.037 159.61,118.703 161.5,118.5C 163.578,104.004 170.078,92.0042 181,82.5C 185.41,84.2924 189.243,86.959 192.5,90.5C 194.481,89.8946 194.815,88.8946 193.5,87.5C 183.2,76.1959 174.7,77.5292 168,91.5C 164.174,98.1518 161.174,105.152 159,112.5C 158.138,110.913 157.471,109.246 157,107.5C 156.667,102.5 156.333,97.5 156,92.5C 155.282,91.5494 154.449,91.3828 153.5,92C 152.003,99.8138 149.503,107.314 146,114.5C 142.3,139.663 140.133,139.33 139.5,113.5C 139.08,106.849 140.08,100.516 142.5,94.5C 138.67,95.4853 135.837,97.8187 134,101.5C 134.505,89.8225 139.672,80.8225 149.5,74.5C 146.511,72.9974 143.844,70.9974 141.5,68.5C 154.941,68.0966 168.275,66.7632 181.5,64.5C 185.619,65.6074 189.286,67.6074 192.5,70.5C 193.386,69.675 193.719,68.675 193.5,67.5C 194.675,67.719 195.675,67.3857 196.5,66.5C 201.568,54.3004 202.568,54.6338 199.5,67.5C 199.365,69.808 200.031,71.808 201.5,73.5C 203.271,72.9646 203.604,72.1313 202.5,71C 203.561,66.269 205.894,62.269 209.5,59C 222.293,58.7896 234.96,57.7896 247.5,56C 242.504,58.7212 237.171,59.8878 231.5,59.5C 231.33,60.8221 231.663,61.9887 232.5,63C 237.08,64.3828 241.747,65.3828 246.5,66C 243.833,66.3333 241.167,66.6667 238.5,67C 237.044,67.4226 236.544,68.2559 237,69.5C 249.381,75.0477 258.215,84.0477 263.5,96.5 Z M 209.5,162.5 C 209.372,160.345 209.872,158.345 211,156.5C 211.405,158.775 210.905,160.775 209.5,162.5 Z M 209.5,162.5 C 206.838,167.683 202.505,170.683 196.5,171.5C 192.836,171.14 189.503,169.974 186.5,168C 188.656,166.397 189.99,164.23 190.5,161.5C 196.922,157.425 202.422,158.092 207,163.5C 207.671,162.748 208.504,162.414 209.5,162.5 Z"/></g>
<g><path style="opacity:0.675" fill="#000000" d="M 192.5,77.5 C 194.144,77.2865 195.644,77.6198 197,78.5C 198.316,81.6883 198.816,85.0217 198.5,88.5C 197.5,88.5 196.5,88.5 195.5,88.5C 195.663,86.1432 195.497,83.8098 195,81.5C 193.519,80.5291 192.685,79.1958 192.5,77.5 Z"/></g>
<g><path style="opacity:0.632" fill="#000000" d="M 205.5,77.5 C 206.978,77.238 208.311,77.5713 209.5,78.5C 206.388,81.7364 204.055,85.4031 202.5,89.5C 200.743,84.7838 201.743,80.7838 205.5,77.5 Z"/></g>
<g><path style="opacity:0.675" fill="#000000" d="M 211.5,110.5 C 219.479,109.656 226.145,112.156 231.5,118C 230.975,118.692 230.308,119.192 229.5,119.5C 225.656,116.828 221.489,114.828 217,113.5C 214.097,113.911 211.431,114.911 209,116.5C 208.308,115.975 207.808,115.308 207.5,114.5C 208.867,113.16 210.2,111.827 211.5,110.5 Z"/></g>
<g><path style="opacity:0.67" fill="#000000" d="M 173.5,112.5 C 176.187,112.336 178.854,112.503 181.5,113C 184,113.833 184.167,115 182,116.5C 179.599,115.398 177.099,115.231 174.5,116C 170.556,118.141 166.556,119.975 162.5,121.5C 162.33,120.178 162.663,119.011 163.5,118C 166.767,115.87 170.1,114.037 173.5,112.5 Z"/></g>
<g><path style="opacity:0.698" fill="#000000" d="M 280.5,116.5 C 283.385,117.545 285.552,119.545 287,122.5C 288.916,120.791 291.082,119.457 293.5,118.5C 294.5,118.833 295.167,119.5 295.5,120.5C 292.696,122.138 290.029,123.971 287.5,126C 289.201,129.637 290.201,133.47 290.5,137.5C 292.924,137.192 295.257,137.526 297.5,138.5C 297.291,139.086 296.957,139.586 296.5,140C 294.527,140.495 292.527,140.662 290.5,140.5C 290.494,145.215 289.994,149.882 289,154.5C 288.586,154.957 288.086,155.291 287.5,155.5C 286.741,150.537 286.741,145.537 287.5,140.5C 285.023,140.949 283.023,140.283 281.5,138.5C 283.5,137.833 285.5,137.167 287.5,136.5C 286.605,133.192 285.771,129.859 285,126.5C 282.673,129.14 280.173,129.974 277.5,129C 279.25,126.947 281.25,125.114 283.5,123.5C 281.98,121.338 280.98,119.005 280.5,116.5 Z"/></g>
<g><path style="opacity:0.704" fill="#000000" d="M 120.5,121.5 C 121.497,121.47 122.164,121.97 122.5,123C 120.44,126.287 118.774,129.787 117.5,133.5C 120.03,134.132 122.363,135.132 124.5,136.5C 124.113,137.72 123.28,138.387 122,138.5C 120.234,137.767 118.401,137.433 116.5,137.5C 116.007,139.806 115.674,142.139 115.5,144.5C 117.342,144.277 119.175,143.943 121,143.5C 123.965,143.438 124.798,144.605 123.5,147C 120.854,147.497 118.187,147.664 115.5,147.5C 115.349,152.292 116.016,156.959 117.5,161.5C 116.265,164.044 115.099,164.044 114,161.5C 112.925,157.23 112.425,152.897 112.5,148.5C 108.833,148.5 105.167,148.5 101.5,148.5C 101.33,147.178 101.663,146.011 102.5,145C 105.817,144.502 109.15,144.335 112.5,144.5C 112.292,142.08 112.626,139.747 113.5,137.5C 109.524,136.614 105.524,135.948 101.5,135.5C 101.5,134.5 101.5,133.5 101.5,132.5C 105.767,132.752 109.934,133.419 114,134.5C 115.126,129.582 117.292,125.248 120.5,121.5 Z"/></g>
<g><path style="opacity:0.787" fill="#000000" d="M 228.5,125.5 C 230.665,125.116 232.332,125.783 233.5,127.5C 230.341,131.492 226.674,134.992 222.5,138C 226.079,139.706 229.579,141.539 233,143.5C 233.915,145.92 233.082,147.253 230.5,147.5C 225.718,145.61 221.052,143.443 216.5,141C 215.426,140.261 214.759,139.261 214.5,138C 218.951,133.605 223.617,129.439 228.5,125.5 Z"/></g>
<g><path style="opacity:0.811" fill="#000000" d="M 161.5,126.5 C 162.873,126.343 164.207,126.51 165.5,127C 169.674,129.588 174.007,131.921 178.5,134C 180.846,135.013 182.513,136.679 183.5,139C 183.241,140.261 182.574,141.261 181.5,142C 175.549,145.648 169.216,148.148 162.5,149.5C 162.286,147.856 162.62,146.356 163.5,145C 167.5,143 171.5,141 175.5,139C 171.5,136.667 167.5,134.333 163.5,132C 161.845,130.556 161.178,128.722 161.5,126.5 Z"/></g>
<g><path style="opacity:0.692" fill="#000000" d="M 211.5,152.5 C 212.496,152.414 213.329,152.748 214,153.5C 215.124,161.422 212.291,167.589 205.5,172C 196.797,175.965 188.964,174.798 182,168.5C 179.791,165.859 179.291,163.025 180.5,160C 190.991,157.626 201.325,155.126 211.5,152.5 Z M 209.5,162.5 C 210.905,160.775 211.405,158.775 211,156.5C 209.872,158.345 209.372,160.345 209.5,162.5 Z M 209.5,162.5 C 208.504,162.414 207.671,162.748 207,163.5C 202.422,158.092 196.922,157.425 190.5,161.5C 189.99,164.23 188.656,166.397 186.5,168C 189.503,169.974 192.836,171.14 196.5,171.5C 202.505,170.683 206.838,167.683 209.5,162.5 Z"/></g>
<g><path style="opacity:0.93" fill="#000000" d="M 54.5,239.5 C 63.8333,239.5 73.1667,239.5 82.5,239.5C 82.5,254.833 82.5,270.167 82.5,285.5C 73.1667,285.5 63.8333,285.5 54.5,285.5C 54.5,270.167 54.5,254.833 54.5,239.5 Z"/></g>
<g><path style="opacity:0.91" fill="#000000" d="M 84.5,239.5 C 91.8409,239.334 99.1742,239.5 106.5,240C 113.343,244.2 115.176,250.033 112,257.5C 110.316,259.351 108.483,261.018 106.5,262.5C 113.258,267.011 115.091,273.011 112,280.5C 110.457,282.378 108.624,283.878 106.5,285C 99.1742,285.5 91.8409,285.666 84.5,285.5C 84.5,270.167 84.5,254.833 84.5,239.5 Z"/></g>
<g><path style="opacity:0.909" fill="#000000" d="M 161.5,239.5 C 168.167,239.5 174.833,239.5 181.5,239.5C 181.5,254.833 181.5,270.167 181.5,285.5C 174.833,285.5 168.167,285.5 161.5,285.5C 161.5,270.167 161.5,254.833 161.5,239.5 Z"/></g>
<g><path style="opacity:0.901" fill="#000000" d="M 281.5,239.5 C 288.167,239.5 294.833,239.5 301.5,239.5C 301.5,254.833 301.5,270.167 301.5,285.5C 294.833,285.5 288.167,285.5 281.5,285.5C 281.5,270.167 281.5,254.833 281.5,239.5 Z"/></g>
<g><path style="opacity:0.731" fill="#000000" d="M 192.5,240.5 C 195.518,240.335 198.518,240.502 201.5,241C 202.554,242.388 202.72,243.888 202,245.5C 198.927,246.617 195.76,246.784 192.5,246C 189.982,244.19 189.982,242.357 192.5,240.5 Z"/></g>
<g><path style="opacity:0.903" fill="#000000" d="M 186.5,250.5 C 193.167,250.5 199.833,250.5 206.5,250.5C 206.5,261.833 206.5,273.167 206.5,284.5C 199.833,284.5 193.167,284.5 186.5,284.5C 186.5,273.167 186.5,261.833 186.5,250.5 Z"/></g>
<g><path style="opacity:0.807" fill="#000000" d="M 127.5,251.5 C 130.167,251.5 132.833,251.5 135.5,251.5C 135.333,262.172 135.5,272.839 136,283.5C 144.547,284.473 150.047,280.806 152.5,272.5C 154.346,272.222 155.68,272.889 156.5,274.5C 154.752,279.081 151.752,282.581 147.5,285C 140.833,285.667 134.167,285.667 127.5,285C 115.038,278.943 112.205,269.777 119,257.5C 121.671,255.098 124.505,253.098 127.5,251.5 Z"/></g>
<g><path style="opacity:0.821" fill="#000000" d="M 137.5,251.5 C 149.405,251.107 156.071,256.773 157.5,268.5C 150.833,268.5 144.167,268.5 137.5,268.5C 137.5,262.833 137.5,257.167 137.5,251.5 Z"/></g>
<g><path style="opacity:0.946" fill="#000000" d="M 212.5,251.5 C 218.833,251.5 225.167,251.5 231.5,251.5C 231.5,262.833 231.5,274.167 231.5,285.5C 225.167,285.5 218.833,285.5 212.5,285.5C 212.5,274.167 212.5,262.833 212.5,251.5 Z"/></g>
<g><path style="opacity:0.907" fill="#000000" d="M 234.5,251.5 C 238.514,251.334 242.514,251.501 246.5,252C 249.196,252.69 251.363,254.19 253,256.5C 254.42,266.086 254.92,275.753 254.5,285.5C 247.833,285.5 241.167,285.5 234.5,285.5C 234.5,274.167 234.5,262.833 234.5,251.5 Z"/></g>
<g><path style="opacity:0.881" fill="#000000" d="M 269.5,251.5 C 272.5,251.5 275.5,251.5 278.5,251.5C 278.5,262.833 278.5,274.167 278.5,285.5C 262.669,285.865 256.169,278.199 259,262.5C 261.357,257.645 264.857,253.979 269.5,251.5 Z"/></g>
<g><path style="opacity:0.812" fill="#000000" d="M 312.5,251.5 C 319.031,249.779 323.031,252.112 324.5,258.5C 324.152,260.697 323.152,262.53 321.5,264C 322.448,264.483 323.448,264.649 324.5,264.5C 324.5,271.5 324.5,278.5 324.5,285.5C 320.154,285.666 315.821,285.499 311.5,285C 303.848,279.894 302.848,273.728 308.5,266.5C 309.795,265.902 311.128,265.402 312.5,265C 307.316,260.522 307.316,256.022 312.5,251.5 Z M 320.5,265.5 C 318.367,267.767 316.034,267.934 313.5,266C 315.81,265.503 318.143,265.337 320.5,265.5 Z"/></g>
<g><path style="opacity:0.907" fill="#000000" d="M 326.5,251.5 C 330.514,251.334 334.514,251.501 338.5,252C 342.77,253.27 345.27,256.104 346,260.5C 346.5,268.827 346.666,277.16 346.5,285.5C 339.833,285.5 333.167,285.5 326.5,285.5C 326.5,274.167 326.5,262.833 326.5,251.5 Z"/></g>
<g><path style="opacity:0.74" fill="#000000" d="M 127.5,325.5 C 130.518,325.335 133.518,325.502 136.5,326C 137.337,327.011 137.67,328.178 137.5,329.5C 140.85,329.335 144.183,329.502 147.5,330C 146.207,330.49 144.873,330.657 143.5,330.5C 142.833,343.833 142.167,343.833 141.5,330.5C 138.795,330.38 138.128,331.38 139.5,333.5C 137.585,340.139 133.252,342.305 126.5,340C 122.19,334.775 122.523,329.941 127.5,325.5 Z"/></g>
<g><path style="opacity:0.601" fill="#000000" d="M 170.5,325.5 C 172.344,327.279 173.01,329.612 172.5,332.5C 174.833,332.5 177.167,332.5 179.5,332.5C 179.192,330.076 179.526,327.743 180.5,325.5C 181.429,326.689 181.762,328.022 181.5,329.5C 186.214,329.173 190.88,329.507 195.5,330.5C 197.192,332.359 198.692,334.359 200,336.5C 200.186,334.1 200.686,331.766 201.5,329.5C 202.489,333.107 202.823,336.774 202.5,340.5C 198.649,341.029 195.149,340.362 192,338.5C 189.503,340.478 186.669,340.978 183.5,340C 182.809,338.933 182.309,337.766 182,336.5C 181.781,337.938 181.281,339.271 180.5,340.5C 179.526,338.257 179.192,335.924 179.5,333.5C 177.167,333.5 174.833,333.5 172.5,333.5C 172.808,335.924 172.474,338.257 171.5,340.5C 170.506,335.544 170.173,330.544 170.5,325.5 Z"/></g>
<g><path style="opacity:0.743" fill="#000000" d="M 240.5,325.5 C 243.518,325.335 246.518,325.502 249.5,326C 250.337,327.011 250.67,328.178 250.5,329.5C 255.317,328.89 257.317,329.223 256.5,330.5C 255.833,343.833 255.167,343.833 254.5,330.5C 251.795,330.38 251.128,331.38 252.5,333.5C 250.585,340.139 246.252,342.305 239.5,340C 235.19,334.775 235.523,329.941 240.5,325.5 Z"/></g>
<g><path style="opacity:0.659" fill="#000000" d="M 282.5,325.5 C 286.846,325.334 291.179,325.501 295.5,326C 294.072,328.185 292.405,330.185 290.5,332C 291.333,332.167 292.167,332.333 293,332.5C 296.745,329.758 300.912,328.925 305.5,330C 306.529,333.057 307.862,333.057 309.5,330C 312.167,329.333 314.833,329.333 317.5,330C 318.667,330.5 319.5,331.333 320,332.5C 320.249,331.376 320.749,330.376 321.5,329.5C 322.833,342.833 324.167,342.833 325.5,329.5C 326.251,330.376 326.751,331.376 327,332.5C 329.559,329.651 332.726,328.817 336.5,330C 337.126,330.75 337.626,331.584 338,332.5C 338.249,331.376 338.749,330.376 339.5,329.5C 340.452,331.045 340.785,332.712 340.5,334.5C 342.167,334.5 343.833,334.5 345.5,334.5C 346.245,327.932 346.912,328.098 347.5,335C 346.912,341.902 346.245,342.068 345.5,335.5C 343.833,335.5 342.167,335.5 340.5,335.5C 340.785,337.288 340.452,338.955 339.5,340.5C 338.676,338.252 337.676,338.086 336.5,340C 333.833,340.667 331.167,340.667 328.5,340C 327.118,335.295 326.451,335.461 326.5,340.5C 324.5,340.5 322.5,340.5 320.5,340.5C 320.649,339.448 320.483,338.448 320,337.5C 318.537,339.885 316.371,340.885 313.5,340.5C 310.675,340.881 308.509,339.881 307,337.5C 306.626,338.416 306.126,339.25 305.5,340C 302.833,340.667 300.167,340.667 297.5,340C 295.085,338.535 294.085,336.368 294.5,333.5C 292.801,333.34 291.134,333.506 289.5,334C 287.887,337.12 285.553,339.287 282.5,340.5C 282.5,335.5 282.5,330.5 282.5,325.5 Z"/></g>
<g><path style="opacity:0.666" fill="#000000" d="M 153.5,329.5 C 156.833,329.5 160.167,329.5 163.5,329.5C 163.823,333.226 163.489,336.893 162.5,340.5C 160.586,337.006 158.419,333.672 156,330.5C 155.502,333.817 155.335,337.15 155.5,340.5C 152.15,340.665 148.817,340.498 145.5,340C 148.383,336.624 151.049,333.124 153.5,329.5 Z"/></g>
<g><path style="opacity:0.612" fill="#000000" d="M 203.5,329.5 C 206.572,329.183 209.572,329.516 212.5,330.5C 210.377,333.246 208.377,336.079 206.5,339C 207.793,339.49 209.127,339.657 210.5,339.5C 210.5,338.5 210.5,337.5 210.5,336.5C 211.5,336.5 212.5,336.5 213.5,336.5C 213.5,334.167 213.5,331.833 213.5,329.5C 219.167,329.5 224.833,329.5 230.5,329.5C 230.823,333.226 230.489,336.893 229.5,340.5C 227.586,337.006 225.419,333.672 223,330.5C 218.627,333.686 218.794,336.853 223.5,340C 220.702,340.561 218.869,339.394 218,336.5C 217.044,337.579 216.211,338.745 215.5,340C 211.514,340.499 207.514,340.666 203.5,340.5C 203.5,336.833 203.5,333.167 203.5,329.5 Z"/></g>
<g><path style="opacity:0.636" fill="#000000" d="M 266.5,329.5 C 269.833,329.5 273.167,329.5 276.5,329.5C 276.823,333.226 276.489,336.893 275.5,340.5C 273.527,337.36 271.36,334.36 269,331.5C 268.502,334.482 268.335,337.482 268.5,340.5C 265.15,340.665 261.817,340.498 258.5,340C 261.383,336.624 264.049,333.124 266.5,329.5 Z"/></g>
<g><path style="opacity:0.191" fill="#000000" d="M 40.5,387.5 C 36.4567,388.537 32.6234,388.537 29,387.5C 26.0392,388.19 23.2059,389.19 20.5,390.5C 17.0915,388.779 13.4249,388.112 9.5,388.5C 9.5,386.167 9.5,383.833 9.5,381.5C 12.3193,382.494 15.1526,383.494 18,384.5C 21.6667,383.167 25.3333,383.167 29,384.5C 29.2492,383.376 29.7492,382.376 30.5,381.5C 33.2369,383.102 36.2369,383.936 39.5,384C 40.3366,385.011 40.67,386.178 40.5,387.5 Z"/></g>
<g><path style="opacity:0.187" fill="#000000" d="M 42.5,387.5 C 42.0847,385.052 43.0847,383.719 45.5,383.5C 51.0051,383.666 56.6717,383.666 62.5,383.5C 62.5,384.833 62.5,386.167 62.5,387.5C 63.5,387.5 64.5,387.5 65.5,387.5C 65.5,386.167 65.5,384.833 65.5,383.5C 68.8499,383.335 72.1832,383.502 75.5,384C 76.3802,385.356 76.7135,386.856 76.5,388.5C 75.5,388.5 74.5,388.5 73.5,388.5C 73.1667,384.5 72.8333,384.5 72.5,388.5C 68.5,388.5 64.5,388.5 60.5,388.5C 60.1667,384.5 59.8333,384.5 59.5,388.5C 53.5783,388.439 47.9117,388.106 42.5,387.5 Z M 67.5,384.5 C 71.0287,385.297 71.1953,386.297 68,387.5C 67.5172,386.552 67.3505,385.552 67.5,384.5 Z M 45.5,385.5 C 49.2434,385.459 49.4101,386.126 46,387.5C 45.5357,386.906 45.369,386.239 45.5,385.5 Z"/></g>
<g><path style="opacity:0.182" fill="#000000" d="M 40.5,387.5 C 41.1667,387.5 41.8333,387.5 42.5,387.5C 41.8333,388.833 41.1667,388.833 40.5,387.5 Z"/></g>
</svg>
