<?xml version="1.0" encoding="UTF-8"?>
<!DOCTYPE svg PUBLIC "-//W3C//DTD SVG 1.1//EN" "http://www.w3.org/Graphics/SVG/1.1/DTD/svg11.dtd">
<svg xmlns="http://www.w3.org/2000/svg" version="1.1" width="360px" height="400px" style="shape-rendering:geometricPrecision; text-rendering:geometricPrecision; image-rendering:optimizeQuality; fill-rule:evenodd; clip-rule:evenodd" xmlns:xlink="http://www.w3.org/1999/xlink">
<g><path style="opacity:0.795" fill="#000000" d="M 186.5,33.5 C 188.665,33.1159 190.332,33.7826 191.5,35.5C 189.381,39.0505 187.881,42.7172 187,46.5C 192.166,40.6586 198.499,38.992 206,41.5C 223.611,39.6017 241.111,37.435 258.5,35C 259.554,36.3876 259.72,37.8876 259,39.5C 254.013,44.4101 248.18,47.9101 241.5,50C 247.369,50.9169 253.202,51.7502 259,52.5C 259.63,54.9034 258.797,56.7367 256.5,58C 253.519,59.4872 250.519,60.8206 247.5,62C 263.584,71.9905 275.084,85.8238 282,103.5C 284.264,109.662 284.93,115.996 284,122.5C 283.282,123.451 282.449,123.617 281.5,123C 276.508,113.015 270.342,103.848 263,95.5C 269.097,109.396 274.431,123.729 279,138.5C 283.196,151.535 284.862,164.868 284,178.5C 283,179.833 282,179.833 281,178.5C 272.869,160.23 263.202,142.897 252,126.5C 248.958,152.155 249.125,177.822 252.5,203.5C 251.767,210.076 248.434,214.909 242.5,218C 226.526,224.641 209.859,227.807 192.5,227.5C 192.5,233.167 192.5,238.833 192.5,244.5C 194.905,244.134 197.238,243.467 199.5,242.5C 205.599,244.769 209.432,249.102 211,255.5C 215.043,273.344 216.21,291.344 214.5,309.5C 212.389,312.044 210.222,312.044 208,309.5C 207.812,295.805 207.145,282.138 206,268.5C 205.472,264.057 204.472,259.723 203,255.5C 202.359,253.187 201.026,251.52 199,250.5C 194.793,252.069 190.627,253.735 186.5,255.5C 181.692,254.231 177.026,252.564 172.5,250.5C 171.186,251.313 170.019,252.313 169,253.5C 163.674,271.763 161.341,290.429 162,309.5C 159.778,312.044 157.611,312.044 155.5,309.5C 154.312,294.102 155.145,278.769 158,263.5C 159.211,257.868 161.211,252.534 164,247.5C 166.982,243.825 170.649,242.492 175,243.5C 175.667,238.167 175.667,232.833 175,227.5C 160.578,229.963 146.078,230.13 131.5,228C 113.465,224.764 102.632,214.264 99,196.5C 98.0311,185.185 97.3645,173.852 97,162.5C 94.8695,176.373 92.2028,176.707 89,163.5C 86.1764,146.624 84.843,129.624 85,112.5C 82.8333,116.167 80.6667,119.833 78.5,123.5C 73.8596,102.248 79.8596,84.0818 96.5,69C 90.6511,65.6723 86.9844,60.839 85.5,54.5C 101.517,54.5626 117.517,54.0626 133.5,53C 139.941,52.5129 146.108,51.0129 152,48.5C 154.877,49.2673 157.71,49.7673 160.5,50C 156.356,38.9623 158.69,37.1289 167.5,44.5C 169.192,46.3586 170.692,48.3586 172,50.5C 174.333,46.5 176.667,42.5 179,38.5C 181.17,36.1769 183.67,34.5103 186.5,33.5 Z M 183.5,40.5 C 180.698,48.9416 179.865,57.6083 181,66.5C 182,67.8333 183,67.8333 184,66.5C 184.482,57.0552 188.649,49.8885 196.5,45C 215.006,45.259 233.339,43.4257 251.5,39.5C 252.696,39.8457 252.696,40.3457 251.5,41C 244.592,44.5158 237.258,46.5158 229.5,47C 227.893,48.049 227.227,49.549 227.5,51.5C 235.167,52.9333 242.834,54.4333 250.5,56C 245.563,57.0855 240.563,57.7521 235.5,58C 234.978,58.5613 234.645,59.228 234.5,60C 256.011,69.5067 270.511,85.3401 278,107.5C 269.644,94.9777 259.144,84.6444 246.5,76.5C 245.28,76.8869 244.613,77.7202 244.5,79C 253.459,88.4023 260.293,99.2357 265,111.5C 272.67,128.832 277.67,146.832 280,165.5C 263.344,133.855 243.177,104.688 219.5,78C 217.33,76.4138 214.996,75.0804 212.5,74C 201.66,73.9278 193.66,78.7612 188.5,88.5C 189.348,90.2828 190.681,90.7828 192.5,90C 197.461,80.9607 204.795,77.6273 214.5,80C 227.184,92.6759 238.35,106.509 248,121.5C 244.713,149.333 244.88,177.167 248.5,205C 247.639,207.868 245.972,210.202 243.5,212C 233.965,217.637 223.631,220.971 212.5,222C 204.838,222.722 197.171,223.388 189.5,224C 188.684,231.421 188.184,238.921 188,246.5C 185.462,247.399 182.962,247.066 180.5,245.5C 179.503,238.197 179.169,230.863 179.5,223.5C 165.559,225.366 151.559,225.866 137.5,225C 112.015,221.172 100.182,206.339 102,180.5C 101.141,165.134 101.475,149.801 103,134.5C 104.59,127.332 107.257,120.665 111,114.5C 111.735,121.71 114.235,128.21 118.5,134C 119.793,134.49 121.127,134.657 122.5,134.5C 122.894,127.922 124.394,121.589 127,115.5C 132.296,103.06 139.463,91.8931 148.5,82C 150.833,81.3333 153.167,81.3333 155.5,82C 159.748,84.2435 163.414,87.2435 166.5,91C 168.641,91.8837 170.307,91.3837 171.5,89.5C 167.673,85.8427 163.673,82.3427 159.5,79C 154.806,77.0682 150.139,77.0682 145.5,79C 132.385,92.7235 123.551,108.89 119,127.5C 115.008,116.875 113.508,105.875 114.5,94.5C 113.167,94.5 111.833,94.5 110.5,94.5C 108.849,106.447 105.349,117.78 100,128.5C 98.1425,139.597 95.8092,150.597 93,161.5C 89.5254,143.919 88.8587,126.253 91,108.5C 92.4665,105.242 93.6332,101.908 94.5,98.5C 88.3728,100.449 83.8728,104.449 81,110.5C 81.1313,99.4394 84.4647,89.4394 91,80.5C 95.3167,75.9617 99.8167,71.7951 104.5,68C 99.406,66.2715 95.0726,63.2715 91.5,59C 112.208,59.1535 132.708,57.3202 153,53.5C 154.167,53.6667 155.333,53.8333 156.5,54C 160.939,56.1182 165.106,58.6182 169,61.5C 171.024,61.2005 171.524,60.3671 170.5,59C 171.766,58.6905 172.933,58.1905 174,57.5C 176.687,51.4479 179.854,45.7812 183.5,40.5 Z M 165.5,49.5 C 168.32,51.4784 169.82,54.145 170,57.5C 167.843,55.1829 166.343,52.5162 165.5,49.5 Z M 156.5,204.5 C 158.213,206.85 160.547,207.85 163.5,207.5C 164.374,204.211 165.041,200.877 165.5,197.5C 171.814,196.738 177.98,195.404 184,193.5C 185.961,196.463 188.294,199.129 191,201.5C 193.564,198.142 195.564,194.475 197,190.5C 196.962,201.887 191.462,209.387 180.5,213C 172.591,214.5 165.258,213.167 158.5,209C 157.418,207.67 156.751,206.17 156.5,204.5 Z M 188.5,193.5 C 189.077,192.227 189.743,192.227 190.5,193.5C 190.03,194.463 189.363,194.463 188.5,193.5 Z"/></g>
<g><path style="opacity:0.748" fill="#000000" d="M 169.5,72.5 C 173.09,72.5441 175.59,74.2108 177,77.5C 177.667,81.1667 177.667,84.8333 177,88.5C 175.989,89.3366 174.822,89.67 173.5,89.5C 173.665,86.1501 173.498,82.8168 173,79.5C 171.903,77.9474 170.57,76.614 169,75.5C 168.53,74.4232 168.697,73.4232 169.5,72.5 Z"/></g>
<g><path style="opacity:0.741" fill="#000000" d="M 189.5,73.5 C 190.833,73.5 192.167,73.5 193.5,73.5C 193.649,74.552 193.483,75.552 193,76.5C 188.213,79.8162 185.88,84.4829 186,90.5C 185,91.8333 184,91.8333 183,90.5C 181.944,83.4889 184.111,77.8222 189.5,73.5 Z"/></g>
<g><path style="opacity:0.723" fill="#000000" d="M 201.5,122.5 C 210.992,122.665 219.158,125.998 226,132.5C 226.483,133.448 226.649,134.448 226.5,135.5C 225.127,135.657 223.793,135.49 222.5,135C 213.426,127.165 203.426,125.498 192.5,130C 191.273,128.413 191.606,127.079 193.5,126C 196.158,124.522 198.825,123.355 201.5,122.5 Z"/></g>
<g><path style="opacity:0.735" fill="#000000" d="M 142.5,125.5 C 146.911,125.021 151.078,125.688 155,127.5C 155.483,128.448 155.649,129.448 155.5,130.5C 150.775,129.121 146.108,129.288 141.5,131C 136.076,133.13 130.909,135.63 126,138.5C 123.103,137.83 122.936,136.497 125.5,134.5C 130.995,130.964 136.662,127.964 142.5,125.5 Z"/></g>
<g><path style="opacity:0.756" fill="#000000" d="M 301.5,131.5 C 302.239,131.369 302.906,131.536 303.5,132C 305.724,134.965 308.058,137.798 310.5,140.5C 313.833,138.5 317.167,136.5 320.5,134.5C 322.283,135.348 322.783,136.681 322,138.5C 318.143,140.662 314.643,143.162 311.5,146C 313.228,151.078 314.561,156.244 315.5,161.5C 318.768,162.487 322.102,162.82 325.5,162.5C 325.5,163.833 325.5,165.167 325.5,166.5C 322.167,166.5 318.833,166.5 315.5,166.5C 315.431,173.914 314.598,181.247 313,188.5C 311.12,189.93 309.62,189.596 308.5,187.5C 310.159,180.614 310.826,173.614 310.5,166.5C 307.833,166.5 305.167,166.5 302.5,166.5C 302.33,165.178 302.663,164.011 303.5,163C 305.81,162.503 308.143,162.337 310.5,162.5C 310.302,157.471 309.302,152.638 307.5,148C 304.16,149.093 300.827,150.593 297.5,152.5C 296.28,152.113 295.613,151.28 295.5,150C 298.56,147.285 301.894,144.785 305.5,142.5C 304.197,140.032 302.697,137.699 301,135.5C 300.421,134.072 300.588,132.738 301.5,131.5 Z"/></g>
<g><path style="opacity:0.786" fill="#000000" d="M 60.5,139.5 C 62.3464,139.222 63.6798,139.889 64.5,141.5C 61.3061,146.554 58.6394,151.888 56.5,157.5C 59.7063,158.808 63.0396,159.475 66.5,159.5C 66.5,160.833 66.5,162.167 66.5,163.5C 62.7754,163.405 59.1087,163.238 55.5,163C 54.4604,166.4 53.7938,169.9 53.5,173.5C 57.7978,172.8 62.1311,172.467 66.5,172.5C 66.7135,174.144 66.3802,175.644 65.5,177C 61.4724,177.392 57.4724,177.892 53.5,178.5C 53.4162,185.331 54.4162,191.997 56.5,198.5C 56.5472,200 55.8805,201 54.5,201.5C 52.3001,199.747 51.1334,197.414 51,194.5C 49.809,189.233 49.309,183.899 49.5,178.5C 44.213,179.342 38.8797,179.676 33.5,179.5C 33.2865,177.856 33.6198,176.356 34.5,175C 39.4814,174.252 44.4814,173.752 49.5,173.5C 49.9086,169.736 49.9086,166.07 49.5,162.5C 44.5315,161.587 39.5315,160.753 34.5,160C 33.6634,158.989 33.33,157.822 33.5,156.5C 39.7914,156.412 45.9581,157.079 52,158.5C 53.7671,151.637 56.6004,145.304 60.5,139.5 Z"/></g>
<g><path style="opacity:0.866" fill="#000000" d="M 223.5,145.5 C 228.895,144.555 230.561,146.555 228.5,151.5C 223.5,155.333 218.5,159.167 213.5,163C 218.917,165.79 224.084,168.957 229,172.5C 229.977,175.259 229.144,177.259 226.5,178.5C 218.864,174.682 211.198,170.849 203.5,167C 202.018,164.408 202.352,162.075 204.5,160C 211.262,155.631 217.595,150.798 223.5,145.5 Z"/></g>
<g><path style="opacity:0.861" fill="#000000" d="M 123.5,146.5 C 125.199,146.34 126.866,146.506 128.5,147C 137.167,152 145.833,157 154.5,162C 155.576,163.726 155.743,165.559 155,167.5C 146.737,172.382 138.237,176.882 129.5,181C 123.067,181.037 122.067,178.704 126.5,174C 132.5,171 138.5,168 144.5,165C 137.833,161.333 131.167,157.667 124.5,154C 122.285,151.758 121.952,149.258 123.5,146.5 Z"/></g>
<g><path style="opacity:0.78" fill="#000000" d="M 197.5,185.5 C 199.017,185.511 200.184,186.177 201,187.5C 202.443,203.06 195.61,212.894 180.5,217C 171.973,218.569 163.973,217.235 156.5,213C 150.832,208.1 149.499,202.433 152.5,196C 167.853,193.434 182.853,189.934 197.5,185.5 Z M 156.5,204.5 C 156.751,206.17 157.418,207.67 158.5,209C 165.258,213.167 172.591,214.5 180.5,213C 191.462,209.387 196.962,201.887 197,190.5C 195.564,194.475 193.564,198.142 191,201.5C 188.294,199.129 185.961,196.463 184,193.5C 177.98,195.404 171.814,196.738 165.5,197.5C 165.041,200.877 164.374,204.211 163.5,207.5C 160.547,207.85 158.213,206.85 156.5,204.5 Z M 188.5,193.5 C 189.363,194.463 190.03,194.463 190.5,193.5C 189.743,192.227 189.077,192.227 188.5,193.5 Z"/></g>
<g><path style="opacity:0.899" fill="#000000" d="M 107.5,317.5 C 112.167,317.5 116.833,317.5 121.5,317.5C 121.5,325.167 121.5,332.833 121.5,340.5C 116.833,340.5 112.167,340.5 107.5,340.5C 107.5,332.833 107.5,325.167 107.5,317.5 Z"/></g>
<g><path style="opacity:0.876" fill="#000000" d="M 122.5,317.5 C 126.514,317.334 130.514,317.501 134.5,318C 136.478,320.497 136.978,323.331 136,326.5C 135.5,327.667 134.667,328.5 133.5,329C 137.032,332.39 137.366,336.057 134.5,340C 130.514,340.499 126.514,340.666 122.5,340.5C 122.5,332.833 122.5,325.167 122.5,317.5 Z"/></g>
<g><path style="opacity:0.843" fill="#000000" d="M 160.5,317.5 C 163.833,317.5 167.167,317.5 170.5,317.5C 170.5,325.167 170.5,332.833 170.5,340.5C 167.167,340.5 163.833,340.5 160.5,340.5C 160.5,332.833 160.5,325.167 160.5,317.5 Z"/></g>
<g><path style="opacity:0.581" fill="#000000" d="M 175.5,317.5 C 177.5,317.5 179.5,317.5 181.5,317.5C 180.925,321.473 178.758,322.473 175,320.5C 174.53,319.423 174.697,318.423 175.5,317.5 Z"/></g>
<g><path style="opacity:0.844" fill="#000000" d="M 219.5,317.5 C 222.833,317.5 226.167,317.5 229.5,317.5C 229.5,325.167 229.5,332.833 229.5,340.5C 226.167,340.5 222.833,340.5 219.5,340.5C 219.5,332.833 219.5,325.167 219.5,317.5 Z"/></g>
<g><path style="opacity:0.709" fill="#000000" d="M 172.5,322.5 C 176.167,322.5 179.833,322.5 183.5,322.5C 183.5,328.5 183.5,334.5 183.5,340.5C 179.833,340.5 176.167,340.5 172.5,340.5C 172.5,334.5 172.5,328.5 172.5,322.5 Z"/></g>
<g><path style="opacity:0.705" fill="#000000" d="M 141.5,323.5 C 143.5,323.5 145.5,323.5 147.5,323.5C 147.172,328.875 147.505,334.208 148.5,339.5C 152.017,338.652 154.684,336.652 156.5,333.5C 157.848,335.611 157.515,337.445 155.5,339C 150.953,340.545 146.287,340.879 141.5,340C 136.203,334.501 136.203,329.001 141.5,323.5 Z"/></g>
<g><path style="opacity:0.727" fill="#000000" d="M 148.5,323.5 C 154.973,322.971 158.306,325.971 158.5,332.5C 155.167,332.5 151.833,332.5 148.5,332.5C 148.5,329.5 148.5,326.5 148.5,323.5 Z"/></g>
<g><path style="opacity:0.872" fill="#000000" d="M 185.5,323.5 C 188.833,323.5 192.167,323.5 195.5,323.5C 195.5,329.167 195.5,334.833 195.5,340.5C 192.167,340.5 188.833,340.5 185.5,340.5C 185.5,334.833 185.5,329.167 185.5,323.5 Z"/></g>
<g><path style="opacity:0.854" fill="#000000" d="M 196.5,323.5 C 199.807,323.063 202.807,323.73 205.5,325.5C 206.448,330.435 206.781,335.435 206.5,340.5C 203.167,340.5 199.833,340.5 196.5,340.5C 196.5,334.833 196.5,329.167 196.5,323.5 Z"/></g>
<g><path style="opacity:0.77" fill="#000000" d="M 212.5,323.5 C 214.5,323.5 216.5,323.5 218.5,323.5C 218.5,329.167 218.5,334.833 218.5,340.5C 210.489,341.148 206.989,337.481 208,329.5C 208.804,326.854 210.304,324.854 212.5,323.5 Z"/></g>
<g><path style="opacity:0.726" fill="#000000" d="M 233.5,323.5 C 235.792,323.244 237.959,323.577 240,324.5C 240.499,329.823 240.666,335.156 240.5,340.5C 230.741,341.299 228.407,337.632 233.5,329.5C 232.377,327.518 232.377,325.518 233.5,323.5 Z"/></g>
<g><path style="opacity:0.857" fill="#000000" d="M 241.5,323.5 C 244.807,323.063 247.807,323.73 250.5,325.5C 251.448,330.435 251.781,335.435 251.5,340.5C 248.167,340.5 244.833,340.5 241.5,340.5C 241.5,334.833 241.5,329.167 241.5,323.5 Z"/></g>
<g><path style="opacity:0.562" fill="#000000" d="M 154.5,358.5 C 155.156,357.722 155.989,357.056 157,356.5C 158.766,357.233 160.599,357.567 162.5,357.5C 162.785,359.288 162.452,360.955 161.5,362.5C 160.522,362.023 159.689,361.357 159,360.5C 157.82,361.684 156.32,362.351 154.5,362.5C 150.643,361.983 146.643,361.983 142.5,362.5C 140.875,359.745 141.208,357.245 143.5,355C 144.5,354.833 145.5,354.667 146.5,354.5C 148.965,356.313 151.632,357.647 154.5,358.5 Z M 154.5,358.5 C 154.013,359.473 153.513,360.473 153,361.5C 152.275,359.843 152.775,358.843 154.5,358.5 Z"/></g>
<g><path style="opacity:0.491" fill="#000000" d="M 164.5,354.5 C 166.048,354.821 166.715,355.821 166.5,357.5C 167.5,357.5 168.5,357.5 169.5,357.5C 170.167,353.5 170.833,353.5 171.5,357.5C 178.766,356.918 186.766,356.918 195.5,357.5C 195.48,363.753 193.98,364.086 191,358.5C 189.176,359.749 189.343,360.915 191.5,362C 184.174,362.5 176.841,362.666 169.5,362.5C 169.5,361.167 169.5,359.833 169.5,358.5C 168.5,358.5 167.5,358.5 166.5,358.5C 166.762,359.978 166.429,361.311 165.5,362.5C 164.52,359.914 164.187,357.247 164.5,354.5 Z"/></g>
<g><path style="opacity:0.575" fill="#000000" d="M 198.5,354.5 C 200.527,354.338 202.527,354.505 204.5,355C 206.927,358.12 209.593,358.62 212.5,356.5C 214.071,357.309 215.738,357.643 217.5,357.5C 217.766,362.672 216.599,363.339 214,359.5C 213.517,360.448 213.351,361.448 213.5,362.5C 208.067,361.636 202.734,361.636 197.5,362.5C 197.279,359.721 197.612,357.054 198.5,354.5 Z"/></g>
<g><path style="opacity:0.573" fill="#000000" d="M 219.5,354.5 C 225.679,355.867 232.679,356.867 240.5,357.5C 244.294,355.691 247.461,356.358 250,359.5C 251.232,356.77 252.065,356.937 252.5,360C 252.065,363.063 251.232,363.23 250,360.5C 246.26,361.794 242.26,362.461 238,362.5C 234.167,362.333 230.333,362.167 226.5,362C 225.546,357.561 224.212,357.561 222.5,362C 221.552,362.483 220.552,362.649 219.5,362.5C 219.5,359.833 219.5,357.167 219.5,354.5 Z"/></g>
<g><path style="opacity:0.114" fill="#000000" d="M 6.5,388.5 C 13.2068,389.185 19.8734,389.519 26.5,389.5C 26.4592,393.243 27.1259,393.41 28.5,390C 32.8206,389.501 37.1539,389.334 41.5,389.5C 41.8333,393.5 42.1667,393.5 42.5,389.5C 45.1667,389.5 47.8333,389.5 50.5,389.5C 50.5,390.833 50.5,392.167 50.5,393.5C 38.0457,392.917 25.7124,393.583 13.5,395.5C 11.3543,394.106 9.02099,393.44 6.5,393.5C 6.5,391.833 6.5,390.167 6.5,388.5 Z"/></g>
</svg>
